<svg xmlns="http://www.w3.org/2000/svg" viewBox="0 0 248.58 52.79"><defs><style>.cls-1{fill:#fff;}.cls-2,.cls-3{fill:#e64d32;}.cls-3{font-size:21.3px;font-family:Montserrat-Bold, Montserrat;font-weight:700;}.cls-4{letter-spacing:-0.03em;}.cls-5{letter-spacing:-0.04em;}</style></defs><title>Asset 2</title><g id="Layer_2" data-name="Layer 2"><g id="Logo"><path class="cls-1" d="M33.11,12.88A9.64,9.64,0,0,0,31.5,7.61,7.34,7.34,0,0,1,31.9,10c0,3.72-2.83,7-7.1,8.85a20.7,20.7,0,0,1-8.24,1.64,20.71,20.71,0,0,1-8.29-1.66C4,17,1.21,13.7,1.21,10a7.34,7.34,0,0,1,.4-2.38A9.66,9.66,0,0,0,0,12.88c0,3.49,2,6.65,5.15,8.88A14.57,14.57,0,0,0,3.24,25c4.72.55,8.42,6.1,8.42,12.87a17.11,17.11,0,0,1-1.08,6.07,14.47,14.47,0,0,0,2.45.85,1.15,1.15,0,0,1-.23-.7,1.2,1.2,0,1,1,2.39,0,1.18,1.18,0,0,1-.54,1,14.44,14.44,0,0,0,1.87.12A14.24,14.24,0,0,0,18.6,45a1.16,1.16,0,0,1-.5-1,1.2,1.2,0,1,1,2.39,0,1.18,1.18,0,0,1-.17.62,14.14,14.14,0,0,0,2.5-.94,17.14,17.14,0,0,1-1-5.9c0-6.57,3.5-12,8-12.81a14.06,14.06,0,0,0-1.92-3.24C31.11,19.56,33.11,16.39,33.11,12.88ZM10.21,27.6,8.15,23.74l3.56,1.68,2.52,2.93Zm13.05,0-4,.75,2.51-2.93,3.57-1.68Z"/><path class="cls-1" d="M3,26s.29-.5,2.43,1.64A9.86,9.86,0,0,1,8,32.86s-3.06,2.25-4.91,0S3,26,3,26Z"/><path class="cls-1" d="M30,26s-.29-.5-2.42,1.64a9.82,9.82,0,0,0-2.49,5.27s3.06,2.25,4.91,0S30,26,30,26Z"/><rect class="cls-2" x="40.52" width="1.95" height="52.79"/><text class="cls-3" transform="translate(50.31 32.61)"><tspan class="cls-4">K</tspan><tspan x="15.1" y="0">AB</tspan><tspan class="cls-5" x="47.71" y="0">A</tspan><tspan x="63.22" y="0">W Solutions</tspan></text></g></g></svg>